<svg xmlns="http://www.w3.org/2000/svg" viewBox="0 0 35 80.33"><defs><style>.cls-1{fill:#fff;}.cls-2{fill:#bebebe;stroke:#bebebe;stroke-linecap:round;stroke-linejoin:round;stroke-width:0.75px;}</style></defs><title>Asset 10</title><g id="Layer_2" data-name="Layer 2"><g id="Layer_1-2" data-name="Layer 1"><path class="cls-1" d="M29,.16a120.53,120.53,0,0,1-3.28,16c-.64,2.72-2.75,7.3-9.72,8A17.47,17.47,0,0,0,3.7,30.57a14.28,14.28,0,0,0,0,19.18A17.47,17.47,0,0,0,16,56.16c7,.7,9.08,5.28,9.72,8a120.53,120.53,0,0,1,3.28,16c.05.37,6,0,6,0V.16S29.05-.21,29,.16Z"/><path class="cls-2" d="M15.05,45.18l-1-1L18,40.29l-4-3.94,1-1L20,40.26Z"/></g></g></svg>